# Blender v2.79 (sub 0) OBJ File: 'bittle_urdf_lowpoly_c_imu.blend'
# www.blender.org
o battery_c_battery.001
v 0.026997 0.142981 0.033560
v -0.018243 0.112652 0.034073
v 0.002033 0.105300 0.033617
v 0.022136 0.116203 0.033953
v 0.025051 0.120752 0.047432
v -0.023215 0.118426 0.047963
v -0.025430 0.143249 0.047582
v 0.003271 0.104484 0.047760
v 0.006937 0.117259 0.013272
v 0.001847 0.116482 0.033272
v -0.017472 0.138025 0.013264
v -0.016706 0.138977 0.033263
v -0.026039 -0.087147 0.034193
v 0.027986 -0.082493 0.033857
v -0.009376 -0.102804 0.033721
v 0.009917 -0.102663 0.034107
v 0.027105 -0.076858 0.047739
v 0.018357 -0.098356 0.048014
v -0.024620 -0.089191 0.047830
v -0.007973 -0.103719 0.047642
v 0.016877 -0.073953 0.013362
v 0.004618 -0.093656 0.033372
v -0.008222 -0.093383 0.013373
v -0.016682 -0.077544 0.033366
v 0.112761 -0.214486 -0.003580
v 0.107137 -0.200155 0.013414
v 0.103643 -0.199022 -0.003586
v 0.093647 -0.212987 0.013421
v 0.096828 -0.217875 -0.003577
v 0.116580 0.466498 -0.003903
v 0.098523 0.473963 0.013095
v 0.097386 0.471878 -0.003904
v 0.155368 0.133361 0.013252
v 0.144035 0.138556 -0.003750
v 0.137013 0.132150 0.013254
v -0.138861 0.137360 0.013274
v -0.143608 0.139405 -0.003726
v -0.155534 0.126327 0.013281
v -0.147128 0.117011 -0.003715
v -0.093049 0.466830 0.013114
v -0.095011 0.472947 -0.003889
v -0.109289 0.478614 0.012698
v -0.112454 0.469796 -0.003886
v -0.095382 -0.206096 0.013434
v -0.093545 -0.208660 -0.003565
v -0.112692 -0.202273 0.013433
v -0.110003 -0.201500 -0.003567
v -0.111760 -0.217458 -0.003560
v -0.066410 -0.194135 -0.047874
v -0.077783 -0.189356 -0.047762
v -0.082613 -0.167657 -0.055591
v -0.083880 -0.180170 -0.051617
v -0.070386 -0.158333 -0.058487
v 0.066665 -0.194400 -0.047884
v 0.050421 -0.167916 -0.055693
v 0.051047 -0.186464 -0.049873
v 0.066573 -0.157813 -0.058514
v 0.083862 -0.178422 -0.052164
v 0.073240 -0.158167 -0.048804
v 0.080926 -0.166636 -0.055886
v 0.048208 -0.172261 -0.044866
v -0.049195 -0.178182 -0.052199
v -0.059833 -0.157900 -0.048793
v -0.054361 -0.163008 -0.056942
v -0.084865 -0.171995 -0.044854
v 0.121496 -0.201251 -0.009533
v 0.104672 -0.189969 -0.013591
v 0.098625 -0.189630 0.001410
v 0.084361 -0.204164 -0.013582
v 0.145246 0.147642 0.001086
v 0.138972 0.146437 -0.014093
v 0.124685 0.127660 0.001257
v 0.129193 0.115655 -0.014293
v 0.084210 0.464471 0.001100
v 0.083887 0.469954 -0.013902
v 0.124221 0.473065 0.011951
v -0.118263 0.482623 0.011764
v 0.159970 -0.019557 0.012520
v 0.161040 0.270893 0.012267
v -0.159869 -0.018916 0.012547
v 0.119516 -0.223783 0.012195
v -0.159691 0.272516 0.012332
v 0.110484 0.483393 0.011987
v -0.119870 -0.223866 0.012215
v -0.119271 0.483032 -0.081031
v 0.130170 -0.173487 -0.050527
v 0.111842 -0.056810 -0.085865
v 0.121204 0.481858 -0.081570
v -0.100177 -0.222041 -0.040411
v -0.130790 -0.172731 -0.050444
v -0.055372 -0.190011 -0.049296
v -0.111750 -0.055537 -0.086045
v 0.097215 -0.228989 -0.037111
v 0.077684 -0.190188 -0.049218
v -0.122012 -0.225718 -0.021251
v 0.126004 -0.215273 -0.026541
v -0.095252 -0.224351 -0.012491
v 0.093734 -0.224143 -0.018891
v 0.084393 -0.215358 0.001423
v 0.111330 -0.220049 -0.013641
v 0.148415 -0.051690 0.001339
v -0.122126 -0.205560 -0.013679
v -0.115650 0.448797 -0.013875
v -0.112871 0.474969 -0.013888
v -0.086442 0.476783 -0.003891
v -0.086237 0.454535 -0.013881
v -0.147675 0.309138 0.001193
v -0.118021 0.452749 0.001123
v 0.114966 0.474301 -0.013907
v 0.114075 0.474235 -0.073559
v 0.149108 0.308437 0.001168
v -0.112154 0.475101 -0.073176
v -0.118806 -0.195096 0.001430
v -0.148445 -0.051096 0.001363
v 0.106879 -0.054009 -0.076745
v 0.145166 0.107595 0.001105
v -0.138656 0.147087 -0.013994
v -0.127913 0.116846 -0.014263
v -0.135191 0.110515 0.001025
v -0.051799 -0.187972 -0.040429
v -0.123940 -0.165680 -0.043750
v -0.106372 -0.212647 -0.032724
v -0.106838 -0.052525 -0.076890
v 0.057578 -0.191586 -0.039496
v 0.081274 -0.188238 -0.040439
v 0.111536 -0.206116 -0.035125
v 0.127253 -0.156632 -0.040511
v 0.114155 0.445726 -0.013893
v 0.112131 0.445519 0.001107
v -0.130318 0.142971 0.000983
v -0.091688 0.448053 0.001123
v -0.085176 -0.198406 0.001429
v -0.085010 -0.203807 -0.013568
v -0.105271 -0.189550 -0.013573
v 0.017365 -0.231541 0.013436
v -0.104321 -0.220294 0.013441
v 0.013829 0.143047 0.013259
v -0.107439 0.456110 0.013120
v 0.144762 0.117289 0.013260
v 0.103354 0.455104 0.013103
v 0.111589 -0.217053 0.013421
v -0.008534 -0.062364 0.013358
v 0.115194 0.467311 0.013097
v -0.141832 0.119023 0.013283
v -0.103621 0.455258 -0.003879
v 0.140021 0.119128 -0.003740
v 0.155287 0.124018 -0.003744
v 0.100117 0.457121 -0.003897
v 0.009731 -0.061328 0.033356
v -0.002060 -0.049423 0.047887
v 0.017858 -0.056291 0.033832
v -0.005552 -0.049450 0.034047
v -0.025229 -0.064565 0.047897
v 0.020596 -0.058469 0.047593
v -0.024635 -0.064990 0.033896
v 0.016365 0.140855 0.033260
v -0.009425 0.158555 0.047625
v 0.010731 0.158183 0.047991
v 0.026290 0.142878 0.047612
v -0.018385 0.153063 0.034069
v -0.027391 0.132865 0.033864
v 0.002146 0.160603 0.033628
vn 0.9972 -0.0562 0.0497
vn 0.9724 -0.1787 -0.1500
vn 0.5940 -0.7924 0.1390
vn 0.4759 -0.8746 -0.0921
vn -0.3412 -0.9397 -0.0244
vn -0.4554 -0.8680 0.1978
vn -0.8998 -0.4088 -0.1522
vn -0.9756 -0.0840 0.2030
vn 0.9553 -0.2554 -0.1491
vn 0.8427 -0.5019 0.1950
vn -0.7701 -0.6351 0.0597
vn -0.6360 -0.7477 -0.1909
vn 0.9072 -0.3665 0.2064
vn 0.7222 -0.6499 -0.2370
vn 0.1938 -0.9642 0.1810
vn 0.0086 -0.9978 -0.0664
vn -0.6572 -0.7524 -0.0444
vn -0.6843 -0.7289 0.0211
vn -0.9947 -0.0249 0.0998
vn 0.9002 -0.1422 0.4115
vn 0.5675 -0.7333 -0.3744
vn -0.5647 -0.7463 0.3523
vn 0.8527 0.5027 -0.1417
vn 0.9617 0.2534 0.1046
vn -0.6771 0.7119 0.1866
vn -0.9071 0.3278 -0.2640
vn 0.3705 0.9287 -0.0142
vn 0.2674 0.9541 -0.1349
vn 0.7487 0.5794 -0.3220
vn -0.0621 0.9422 0.3293
vn -0.9305 0.1921 -0.3119
vn -0.5348 0.8082 0.2465
vn -0.8570 0.1345 -0.4975
vn 0.5693 0.7923 0.2194
vn -0.1598 0.8839 -0.4395
vn 0.2140 0.9691 -0.1230
vn 0.3967 0.9120 0.1042
vn -0.9827 0.1081 -0.1505
vn -0.9646 -0.1080 -0.2405
vn 0.8135 0.3495 0.4649
vn 0.8114 0.3475 0.4701
vn 0.5368 0.7719 -0.3405
vn -0.4253 0.8455 0.3228
vn -0.4846 0.8415 0.2387
vn -0.9810 0.0390 -0.1900
vn 0.8580 0.3948 0.3287
vn 0.8123 0.3473 0.4686
vn 0.2931 0.8862 -0.3587
vn -0.4011 0.8242 0.3999
vn -0.5621 0.8011 0.2057
vn 0.5151 0.8360 0.1888
vn -0.5559 0.7952 -0.2420
vn -0.8224 0.4551 0.3413
vn -0.6782 0.6997 0.2247
vn -0.8474 0.2722 -0.4558
vn 0.0017 -0.2234 -0.9747
vn 0.9810 -0.1935 -0.0115
vn 0.0034 -1.0000 -0.0044
vn -0.0048 -0.9999 0.0159
vn -0.9837 -0.1791 0.0149
vn -0.9864 0.0040 -0.1643
vn -0.9809 0.1943 -0.0108
vn -0.0004 0.9945 -0.1048
vn 0.0108 0.9984 -0.0560
vn 0.9814 0.1916 -0.0147
vn 0.9896 0.1252 -0.0703
vn -0.0022 0.0093 -1.0000
vn 0.0009 0.0080 -1.0000
vn 0.8972 0.0072 -0.4416
vn 0.8988 -0.0037 -0.4383
vn 0.9100 -0.0125 -0.4144
vn -0.9102 -0.0089 -0.4140
vn -0.8986 0.0002 -0.4387
vn -0.8969 0.0114 -0.4420
vn 0.1361 -0.3052 -0.9425
vn -0.0841 -0.1933 -0.9775
vn -0.0010 -0.2674 -0.9636
vn -0.0605 -0.2811 -0.9578
vn -0.0013 -0.2608 -0.9654
vn -0.0796 -0.1665 -0.9828
vn 0.0200 -0.2514 -0.9677
vn -0.0014 -0.2985 -0.9544
vn 0.0576 -0.2708 -0.9609
vn -0.0707 -0.2954 -0.9528
vn 0.0627 -0.2695 -0.9610
vn -0.0026 -0.2992 -0.9542
vn 0.0068 -0.2660 -0.9640
vn -0.0046 -0.3149 -0.9491
vn 0.0004 -0.2971 -0.9549
vn 0.0027 -0.2382 -0.9712
vn -0.0026 -0.2994 -0.9541
vn 0.0027 -0.2397 -0.9709
vn -0.0007 -0.2617 -0.9651
vn 0.0643 -0.2859 -0.9561
vn 0.0508 -0.2822 -0.9580
vn 0.0857 -0.1538 -0.9844
vn -0.0616 -0.2356 -0.9699
vn -0.5343 -0.4741 -0.6999
vn -0.0306 -0.9746 -0.2219
vn 0.4616 -0.8795 -0.1159
vn 0.6001 0.7980 0.0557
vn 0.4927 -0.4696 -0.7326
vn -0.0146 0.9153 -0.4025
vn -0.9829 0.1722 0.0653
vn 0.3016 0.3929 -0.8687
vn -0.0001 -0.0005 -1.0000
vn 0.9943 -0.1056 0.0118
vn 0.9588 -0.1979 0.2037
vn 0.9727 -0.2278 -0.0437
vn -0.9569 -0.2582 -0.1327
vn -0.9995 0.0284 0.0149
vn -0.9586 -0.2574 -0.1217
vn 0.1385 -0.9904 -0.0010
vn -0.0577 -0.9381 -0.3416
vn 0.0690 -0.9976 -0.0014
vn -0.0039 -0.9973 -0.0735
vn -0.0378 -0.9986 0.0383
vn 0.9793 0.2016 0.0200
vn 0.9837 -0.0777 -0.1624
vn -0.0017 0.0070 -1.0000
vn 0.0007 0.0060 -1.0000
vn 0.8827 0.0094 -0.4698
vn 0.8807 0.0572 -0.4702
vn 0.6974 0.0132 -0.7166
vn 0.8549 -0.2745 0.4402
vn 0.9246 -0.0220 -0.3804
vn 0.8934 -0.0136 -0.4490
vn 0.9022 -0.0097 -0.4312
vn -0.8952 -0.0081 -0.4456
vn -0.8806 -0.0926 0.4648
vn -0.8060 -0.2909 0.5155
vn -0.8998 -0.0060 -0.4362
vn -0.9120 0.0740 -0.4035
vn -0.8807 0.0640 -0.4694
vn -0.8830 -0.0040 -0.4694
vn 0.0005 -0.2605 -0.9655
vn 0.0146 -0.2635 -0.9646
vn 0.0129 -0.2648 -0.9642
vn -0.0561 -0.1752 -0.9829
vn -0.0074 -0.2569 -0.9664
vn -0.0422 -0.2749 -0.9605
vn -0.0006 -0.2680 -0.9634
vn 0.0017 -0.2822 -0.9593
vn 0.2263 -0.7090 -0.6679
vn -0.0017 -0.2946 -0.9556
vn -0.0015 -0.2933 -0.9560
vn -0.0006 -0.2681 -0.9634
vn -0.0011 -0.2581 -0.9661
vn -0.0680 -0.2521 -0.9653
vn -0.4450 -0.0316 -0.8950
vn -0.7730 -0.4040 -0.4891
vn -0.5607 -0.8121 -0.1616
vn 0.0121 -0.6757 -0.7371
vn -0.0158 -0.8692 -0.4941
vn 0.8719 -0.4146 -0.2605
vn 0.3364 -0.7916 -0.5102
vn 0.9024 -0.3182 -0.2907
vn 0.4165 -0.2281 -0.8801
vn -0.6030 -0.7534 -0.2624
vn -0.5595 -0.8243 -0.0869
vn 0.0001 0.0005 1.0000
vn -0.6593 -0.6755 0.3303
vn 0.9152 -0.1369 0.3790
vn 0.8642 0.3105 -0.3958
vn -0.1710 -0.9591 0.2257
vn 0.1804 -0.9251 -0.3341
vn 0.9486 -0.1223 0.2918
vn 0.8860 -0.4330 0.1658
vn 0.5530 0.7858 -0.2768
vn 0.0891 0.9054 0.4151
vn -0.6486 0.6850 -0.3319
vn 0.0271 0.0389 0.9989
vn -0.0281 0.0230 0.9993
vn -0.8988 -0.3523 -0.2609
vn 0.1964 0.3368 -0.9209
vn -0.0014 0.0014 -1.0000
vn 0.2731 0.0621 -0.9600
vn 0.3571 -0.9314 0.0703
vn -0.8388 -0.4034 0.3655
vn 0.8400 -0.4938 -0.2249
vn -0.2076 -0.5136 0.8326
vn 0.3626 -0.9301 0.0583
vn -0.8660 -0.3111 0.3914
vn 0.8363 -0.4971 -0.2315
vn -0.4295 -0.8874 -0.1677
vn 0.1425 -0.8816 0.4500
vn 0.0458 0.4584 -0.8876
vn -0.3716 0.1337 -0.9187
vn 0.0162 -0.1748 -0.9845
vn -0.0001 0.0013 -1.0000
vn -0.0090 0.0007 -1.0000
vn 0.0010 -0.0006 -1.0000
vn 0.0010 -0.0015 -1.0000
vn -0.0001 -0.0021 -1.0000
vn -0.0091 -0.0017 -1.0000
vn 0.0009 -0.0003 -1.0000
vn 0.0000 0.1576 0.9875
vn -0.0002 -0.0075 -1.0000
vn 0.0008 -0.0061 -1.0000
vn -0.0010 0.0055 -1.0000
vn 0.0024 0.0024 -1.0000
vn 0.0989 -0.0105 -0.9950
vn -0.0056 -0.0008 -1.0000
vn -0.0077 0.0046 -1.0000
vn -0.0001 0.0054 -1.0000
vn 0.0219 0.2378 -0.9711
vn -0.0007 -0.0070 -1.0000
vn 0.0798 -0.0184 -0.9966
vn -0.0045 -0.0036 -1.0000
vn 0.0004 -0.0072 -1.0000
vn -0.0007 -0.1157 -0.9933
vn 0.0012 -0.0337 -0.9994
vn -0.0309 -0.0778 -0.9965
vn -0.0691 0.0153 -0.9975
vn -0.0236 0.1523 -0.9881
vn -0.1956 -0.0520 -0.9793
vn -0.0001 0.0043 -1.0000
vn 0.1943 -0.0008 -0.9809
vn -0.1651 -0.0003 -0.9863
vn 0.0051 -0.0009 -1.0000
vn -0.0695 -0.0889 -0.9936
vn 0.0052 -0.0004 -1.0000
vn -0.3011 0.2915 -0.9079
vn 0.0038 -0.0064 -1.0000
vn 0.1033 0.0218 -0.9944
vn 0.0028 0.0050 -1.0000
vn -0.0002 0.0045 -1.0000
vn -0.0465 -0.0100 -0.9989
vn -0.0000 -0.0070 -1.0000
vn 0.0035 -0.0039 -1.0000
vn 0.0711 0.0326 -0.9969
vn -0.8622 -0.4003 0.3105
vn 0.4116 -0.8524 -0.3223
vn 0.8341 -0.5251 0.1693
vn -0.9713 -0.0757 0.2256
vn -0.8431 -0.5123 -0.1636
vn 0.5886 -0.7900 0.1718
vn 0.8699 -0.4236 -0.2528
vn -0.4563 -0.8559 0.2435
vn 0.9484 -0.1538 -0.2773
vn 0.9476 -0.1491 -0.2825
vn -0.8700 -0.4535 0.1935
vn 0.2997 -0.9359 -0.1848
vn 0.7998 -0.5277 0.2863
vn -0.9795 -0.1813 0.0878
vn -0.9573 -0.2451 0.1532
vn 0.4855 -0.8525 -0.1936
vn 0.7148 -0.6933 0.0914
vn -0.2150 -0.9485 0.2326
vn 0.2062 -0.9695 -0.1322
vn -0.9236 -0.0095 -0.3833
vn -0.4799 0.7819 0.3978
vn 0.3818 0.8370 -0.3921
vn -0.9971 0.0626 -0.0442
vn -0.6304 0.7746 -0.0503
vn -0.5420 0.8294 0.1351
vn 0.3706 0.9259 0.0728
vn 0.2792 0.9575 -0.0723
vn 0.9402 0.3322 -0.0752
vn 0.9252 0.3575 -0.1275
vn 0.0053 0.0099 0.9999
vn 0.0082 -0.0120 0.9999
vn -0.0014 0.0134 0.9999
vn 0.0024 -0.0027 1.0000
vn -0.0093 -0.0236 0.9997
vn 0.0193 -0.0334 0.9993
vn 0.0189 -0.0302 0.9994
vn -0.0465 0.0540 0.9975
vn -0.0476 -0.0174 0.9987
vn -0.0125 -0.0741 0.9972
vn -0.0205 0.0694 0.9974
vn 0.0796 0.0083 0.9968
vn -0.0227 0.0041 0.9997
vn 0.0569 0.0305 0.9979
vn 0.0133 0.0179 0.9998
vn -0.0566 0.9974 -0.0453
vn -0.1571 0.9793 0.1273
vn -0.8984 0.4023 -0.1762
vn -0.6822 0.7129 0.1621
vn -0.3437 0.9273 -0.1485
vn 0.0153 0.9875 0.1572
vn 0.7012 0.7118 0.0405
vn 0.5659 0.7989 -0.2037
vn -0.0178 0.0158 0.9997
vn -0.0008 -0.0255 0.9997
vn 0.0114 -0.0088 0.9999
vn -0.0005 0.0153 0.9999
vn 0.0107 0.0058 0.9999
vn 0.0376 0.0314 0.9988
vn -0.0332 0.0203 0.9992
vn 0.0329 0.0288 0.9990
vn 0.0406 -0.0522 0.9978
vn 0.0829 -0.0470 0.9955
vn -0.0331 0.0302 0.9990
vn -0.0214 -0.0340 0.9992
vn 0.0011 -0.0178 0.9998
vn 0.0399 0.0284 0.9988
vn -0.0323 0.0205 0.9993
s off
f 1//1 159//1 5//1
f 4//2 1//2 5//2
f 4//3 5//3 8//3
f 3//4 4//4 8//4
f 2//5 3//5 8//5
f 2//6 8//6 6//6
f 161//7 2//7 6//7
f 161//8 6//8 7//8
f 9//9 137//9 156//9
f 9//10 156//10 10//10
f 11//11 10//11 12//11
f 11//12 9//12 10//12
f 14//13 17//13 18//13
f 16//14 14//14 18//14
f 16//15 18//15 20//15
f 15//16 16//16 20//16
f 13//17 20//17 19//17
f 13//18 15//18 20//18
f 13//19 19//19 153//19
f 21//20 149//20 22//20
f 23//21 21//21 22//21
f 23//22 22//22 24//22
f 26//23 25//23 27//23
f 26//24 141//24 25//24
f 28//25 26//25 27//25
f 28//26 27//26 29//26
f 31//27 143//27 30//27
f 31//28 30//28 32//28
f 33//29 147//29 34//29
f 35//30 33//30 34//30
f 35//31 34//31 146//31
f 38//32 36//32 37//32
f 38//33 37//33 39//33
f 42//34 40//34 41//34
f 42//35 41//35 43//35
f 46//36 44//36 45//36
f 46//37 45//37 47//37
f 46//38 47//38 48//38
f 61//39 55//39 56//39
f 59//40 58//40 60//40
f 59//41 125//41 58//41
f 59//42 60//42 57//42
f 61//43 59//43 57//43
f 61//44 57//44 55//44
f 65//45 51//45 52//45
f 63//46 62//46 64//46
f 63//47 120//47 62//47
f 63//48 64//48 53//48
f 65//49 63//49 53//49
f 65//50 53//50 51//50
f 68//51 66//51 67//51
f 68//52 67//52 69//52
f 99//53 68//53 69//53
f 72//54 70//54 71//54
f 72//55 71//55 73//55
f 83//56 42//56 77//56
f 82//57 85//57 77//57
f 85//58 83//58 77//58
f 85//59 88//59 83//59
f 88//60 79//60 76//60
f 86//61 96//61 81//61
f 78//62 86//62 81//62
f 93//63 84//63 81//63
f 93//64 95//64 84//64
f 84//65 90//65 80//65
f 95//66 90//66 84//66
f 92//67 85//67 88//67
f 87//68 92//68 88//68
f 78//69 86//69 87//69
f 79//70 78//70 87//70
f 88//71 79//71 87//71
f 92//72 82//72 85//72
f 80//73 82//73 92//73
f 90//74 80//74 92//74
f 89//75 52//75 50//75
f 51//76 90//76 53//76
f 55//77 64//77 57//77
f 53//78 90//78 92//78
f 57//79 64//79 87//79
f 49//80 89//80 50//80
f 64//81 53//81 92//81
f 93//82 54//82 94//82
f 93//83 94//83 58//83
f 52//84 90//84 51//84
f 93//85 58//85 86//85
f 55//86 62//86 64//86
f 93//87 89//87 49//87
f 93//88 49//88 91//88
f 93//89 91//89 54//89
f 54//90 91//90 56//90
f 56//91 62//91 55//91
f 56//92 91//92 62//92
f 87//93 64//93 92//93
f 86//94 58//94 60//94
f 86//95 57//95 87//95
f 86//96 60//96 57//96
f 89//97 90//97 52//97
f 90//98 89//98 95//98
f 95//99 89//99 93//99
f 81//100 93//100 96//100
f 83//101 76//101 88//101
f 96//102 93//102 86//102
f 98//103 97//103 99//103
f 101//104 127//104 66//104
f 106//105 104//105 105//105
f 106//106 103//106 104//106
f 112//107 104//107 103//107
f 107//108 103//108 108//108
f 107//109 112//109 103//109
f 128//110 111//110 129//110
f 110//111 128//111 109//111
f 110//112 111//112 128//112
f 110//113 109//113 75//113
f 105//114 75//114 74//114
f 112//115 105//115 104//115
f 112//116 110//116 75//116
f 112//117 75//117 105//117
f 113//118 121//118 114//118
f 102//119 121//119 113//119
f 123//120 112//120 110//120
f 115//121 123//121 110//121
f 101//122 127//122 115//122
f 73//123 101//123 115//123
f 116//124 101//124 73//124
f 71//125 73//125 115//125
f 111//126 70//126 71//126
f 110//127 111//127 71//127
f 110//128 71//128 115//128
f 117//129 107//129 112//129
f 130//130 107//130 117//130
f 123//131 118//131 117//131
f 123//132 117//132 112//132
f 114//133 119//133 118//133
f 114//134 118//134 123//134
f 121//135 114//135 123//135
f 61//136 63//136 115//136
f 126//137 59//137 115//137
f 126//138 125//138 59//138
f 63//139 65//139 121//139
f 59//140 61//140 115//140
f 63//141 121//141 123//141
f 124//142 120//142 61//142
f 126//143 124//143 125//143
f 120//144 122//144 50//144
f 126//145 122//145 120//145
f 126//146 120//146 124//146
f 61//147 120//147 63//147
f 115//148 63//148 123//148
f 122//149 121//149 65//149
f 122//150 65//150 50//150
f 121//151 122//151 102//151
f 122//152 97//152 102//152
f 122//153 126//153 98//153
f 97//154 122//154 98//154
f 126//155 66//155 100//155
f 98//156 126//156 100//156
f 66//157 126//157 127//157
f 115//158 127//158 126//158
f 74//159 75//159 128//159
f 129//160 74//160 128//160
f 75//161 128//161 109//161
f 116//162 72//162 73//162
f 130//163 119//163 118//163
f 130//164 118//164 117//164
f 131//165 108//165 103//165
f 131//166 103//166 106//166
f 105//167 131//167 106//167
f 132//168 97//168 133//168
f 132//169 133//169 134//169
f 113//170 132//170 134//170
f 113//171 134//171 102//171
f 97//172 133//172 134//172
f 102//173 97//173 134//173
f 99//174 69//174 98//174
f 100//175 98//175 69//175
f 100//176 69//176 67//176
f 100//177 67//177 66//177
f 120//178 49//178 91//178
f 65//179 52//179 50//179
f 120//180 91//180 62//180
f 120//181 50//181 49//181
f 125//182 54//182 94//182
f 124//183 61//183 56//183
f 125//184 94//184 58//184
f 124//185 56//185 54//185
f 125//186 124//186 54//186
f 99//187 97//187 132//187
f 66//188 68//188 101//188
f 107//106 108//106 131//106
f 74//189 131//189 105//189
f 111//106 74//106 129//106
f 111//106 107//106 131//106
f 111//106 131//106 74//106
f 111//190 130//190 107//190
f 70//191 72//191 111//191
f 72//192 130//192 111//192
f 72//193 119//193 130//193
f 132//106 113//106 114//106
f 101//194 114//194 119//194
f 101//195 72//195 116//195
f 101//196 119//196 72//196
f 101//106 132//106 114//106
f 68//106 132//106 101//106
f 99//106 132//106 68//106
f 81//197 84//197 135//197
f 137//198 82//198 79//198
f 137//199 11//199 82//199
f 11//106 144//106 36//106
f 11//200 80//200 144//200
f 9//201 80//201 11//201
f 138//202 77//202 42//202
f 78//203 21//203 9//203
f 78//204 139//204 33//204
f 78//205 9//205 139//205
f 135//106 136//106 44//106
f 135//206 84//206 136//206
f 26//106 28//106 23//106
f 26//106 23//106 21//106
f 35//207 137//207 79//207
f 82//208 77//208 138//208
f 26//209 21//209 78//209
f 28//106 44//106 23//106
f 33//210 35//210 79//210
f 35//106 9//106 137//106
f 31//211 42//211 83//211
f 31//212 40//212 42//212
f 139//106 9//106 35//106
f 140//106 40//106 31//106
f 135//106 44//106 28//106
f 135//106 28//106 141//106
f 143//213 31//213 83//213
f 81//214 26//214 78//214
f 81//215 135//215 141//215
f 81//216 141//216 26//216
f 140//106 138//106 40//106
f 140//217 82//217 138//217
f 80//218 82//218 38//218
f 79//219 78//219 33//219
f 142//220 80//220 9//220
f 76//221 143//221 83//221
f 23//222 80//222 142//222
f 76//223 140//223 143//223
f 21//106 142//106 9//106
f 36//224 38//224 82//224
f 46//225 84//225 80//225
f 80//226 38//226 144//226
f 79//227 82//227 140//227
f 79//228 140//228 76//228
f 11//229 36//229 82//229
f 46//230 80//230 23//230
f 44//106 46//106 23//106
f 136//231 84//231 46//231
f 48//161 45//161 47//161
f 136//232 46//232 48//232
f 136//233 48//233 45//233
f 44//234 136//234 45//234
f 145//106 43//106 41//106
f 138//235 42//235 43//235
f 138//236 43//236 145//236
f 40//237 138//237 145//237
f 40//238 145//238 41//238
f 144//239 38//239 39//239
f 36//240 144//240 39//240
f 36//241 39//241 37//241
f 146//161 147//161 34//161
f 139//242 35//242 146//242
f 139//243 146//243 147//243
f 33//244 139//244 147//244
f 148//161 30//161 32//161
f 31//245 32//245 148//245
f 140//246 31//246 148//246
f 140//247 148//247 30//247
f 143//248 140//248 30//248
f 25//106 29//106 27//106
f 141//249 28//249 29//249
f 141//250 29//250 25//250
f 142//251 23//251 24//251
f 142//252 24//252 149//252
f 21//253 142//253 149//253
f 155//254 13//254 153//254
f 152//255 155//255 153//255
f 152//256 153//256 150//256
f 151//257 150//257 154//257
f 151//258 152//258 150//258
f 14//259 154//259 17//259
f 14//260 151//260 154//260
f 153//261 17//261 154//261
f 153//262 154//262 150//262
f 19//263 18//263 17//263
f 19//264 17//264 153//264
f 19//265 20//265 18//265
f 155//266 149//266 152//266
f 155//267 24//267 149//267
f 16//268 14//268 22//268
f 149//269 14//269 151//269
f 149//270 151//270 152//270
f 15//271 16//271 22//271
f 13//272 24//272 155//272
f 22//273 14//273 149//273
f 15//274 24//274 13//274
f 15//275 22//275 24//275
f 11//276 12//276 156//276
f 137//277 11//277 156//277
f 160//278 161//278 7//278
f 160//279 7//279 157//279
f 162//280 160//280 157//280
f 162//281 157//281 158//281
f 1//282 158//282 159//282
f 1//283 162//283 158//283
f 7//284 158//284 157//284
f 7//285 159//285 158//285
f 6//286 5//286 159//286
f 6//287 159//287 7//287
f 6//288 8//288 5//288
f 3//289 10//289 12//289
f 10//290 4//290 156//290
f 2//291 3//291 12//291
f 160//292 12//292 162//292
f 161//293 12//293 160//293
f 3//294 4//294 10//294
f 156//295 1//295 162//295
f 12//296 156//296 162//296
f 2//297 12//297 161//297
f 4//298 1//298 156//298
