# Blender v2.79 (sub 0) OBJ File: 'bittle_urdf_lowpoly_c_imu.blend'
# www.blender.org
o cover_c_cover.001
v -0.156601 -0.016414 0.097622
v -0.328972 -0.340945 -0.009225
v 0.312799 -0.045595 -0.110145
v 0.313023 0.028446 -0.110361
v 0.336604 0.311573 -0.002824
v 0.344120 0.205617 -0.018096
v -0.352320 -0.323192 -0.005322
v -0.357794 -0.220972 -0.018240
v -0.326324 0.031226 -0.109836
v -0.326523 -0.045024 -0.109834
v 0.342312 0.244450 -0.111949
v 0.341278 -0.260454 -0.111607
v -0.352431 0.305546 -0.028540
v -0.354822 0.245744 -0.111622
v -0.244016 -0.206655 0.096799
v -0.242552 0.193101 0.096860
v -0.311070 0.331066 0.028769
v 0.229814 0.190659 0.096998
v 0.272468 0.335070 0.032559
v 0.105888 0.053297 0.097563
v 0.141837 -0.016968 0.097626
v 0.229888 -0.206534 0.096772
v 0.342566 -0.219517 -0.016140
v 0.336528 -0.328239 -0.010301
v -0.356100 0.204368 -0.016136
v -0.329837 -0.012198 0.014630
v 0.276649 -0.348463 0.033418
v -0.289501 -0.349455 0.031908
v -0.313438 0.333855 0.002696
v 0.311690 0.327262 -0.008781
v -0.355761 -0.259381 -0.111884
v 0.302510 -0.347693 0.000985
v -0.339703 0.194761 -0.013142
v -0.302446 0.321735 0.017466
v 0.332058 -0.301532 -0.035213
v 0.289650 -0.336637 0.016640
v -0.305905 -0.334790 0.017060
v 0.325678 0.188151 -0.011460
v -0.339278 -0.203016 -0.011678
v -0.242522 -0.212141 0.079408
v -0.240577 0.197282 0.079925
v 0.228362 0.196262 0.079635
v 0.287699 0.320710 0.018481
v 0.227636 -0.210832 0.079920
v -0.337401 0.300538 -0.019801
v 0.325052 0.299559 -0.017834
v -0.338785 -0.313555 -0.019478
v 0.316108 -0.016638 0.014599
v -0.115107 0.053943 0.097508
v 0.046685 0.015156 0.096477
v 0.085574 0.012590 0.095462
v 0.065089 0.052670 0.097600
v -0.095563 0.015422 0.096459
vn -0.0073 -0.9806 -0.1959
vn 0.9926 -0.0034 -0.1216
vn 0.9836 0.0215 -0.1793
vn -0.9922 0.0026 -0.1248
vn -0.9909 -0.0016 -0.1345
vn -0.9975 -0.0694 -0.0095
vn -0.9984 0.0549 -0.0101
vn -0.9993 0.0365 0.0025
vn -0.9986 -0.0534 0.0002
vn 0.7132 -0.0502 -0.6992
vn 0.7099 0.0158 -0.7041
vn 0.7045 -0.0154 -0.7095
vn 0.6887 -0.0024 -0.7250
vn 0.7054 0.0005 -0.7088
vn 0.0018 0.4070 0.9134
vn -0.0088 0.4390 0.8984
vn 0.0023 0.0021 1.0000
vn 0.0009 0.0033 1.0000
vn 0.0017 -0.0524 0.9986
vn -0.0519 -0.0256 0.9983
vn 0.0277 0.0242 0.9993
vn -0.0539 -0.0295 0.9981
vn 0.0085 -0.0006 1.0000
vn -0.0003 0.0047 1.0000
vn -0.0005 0.0042 1.0000
vn -0.0007 -0.0276 0.9996
vn -0.0002 -0.0299 0.9996
vn 0.0263 -0.0139 0.9996
vn -0.0020 0.0028 1.0000
vn -0.0001 0.0016 1.0000
vn 0.0001 0.0014 1.0000
vn 0.0280 -0.0172 0.9995
vn -0.0092 -0.0001 1.0000
vn 0.0233 -0.0414 0.9989
vn -0.0017 -0.4133 0.9106
vn 0.0002 -0.4076 0.9132
vn 0.7119 -0.0505 0.7005
vn 0.7085 0.0145 0.7055
vn 0.6902 -0.0003 0.7236
vn 0.7069 -0.0150 0.7072
vn 0.7078 -0.0014 0.7064
vn -0.9996 0.0026 -0.0273
vn 0.9878 -0.1355 0.0770
vn 0.9878 -0.1423 0.0638
vn 0.9888 0.1319 0.0704
vn 0.9888 0.1303 0.0734
vn -0.9881 0.1345 0.0747
vn -0.9881 0.1353 0.0732
vn 0.9997 -0.0031 -0.0258
vn -0.9889 -0.1315 0.0697
vn -0.9888 -0.1378 0.0582
vn 0.5301 0.2100 0.8215
vn 0.6147 -0.1436 0.7755
vn -0.8272 0.0978 0.5534
vn -0.5580 -0.1894 0.8079
vn -0.6523 0.7451 0.1390
vn -0.0075 0.9942 0.1070
vn 0.0071 0.9838 -0.1791
vn 0.4627 0.8411 0.2801
vn 0.5538 0.7218 -0.4150
vn -0.5965 -0.6970 -0.3981
vn -0.5297 -0.7733 0.3483
vn 0.0018 -0.9997 -0.0223
vn 0.2853 -0.8027 -0.5237
vn 0.5515 -0.7192 0.4227
vn -0.7444 0.0581 0.6652
vn 0.7283 0.1315 0.6725
vn -0.0013 -0.9721 -0.2348
vn -0.0197 -0.7800 -0.6254
vn -0.7545 0.1052 0.6478
vn -0.5373 -0.1712 0.8259
vn 0.5233 0.6844 -0.5077
vn 0.8812 0.4603 -0.1079
vn 0.9371 0.3476 0.0316
vn -0.7491 -0.0205 0.6622
vn -0.0029 -0.9731 0.2304
vn -0.0180 -0.8236 0.5669
vn 0.7734 0.0020 0.6339
vn 0.7003 -0.6605 -0.2707
vn -0.9850 -0.0154 -0.1717
vn -0.9853 0.0320 0.1678
vn -0.9851 -0.0165 0.1713
vn 0.6861 0.0152 -0.7273
vn 0.6854 -0.0019 -0.7282
vn 0.6845 -0.0023 -0.7290
vn 0.6846 -0.0253 -0.7285
vn 0.0015 0.4405 0.8978
vn -0.0008 0.4482 0.8939
vn 0.0006 0.0007 1.0000
vn -0.0011 -0.0013 1.0000
vn 0.0003 -0.4492 0.8934
vn -0.0008 -0.4528 0.8916
vn 0.6845 0.0316 0.7284
vn 0.7312 -0.0235 0.6817
vn 0.6834 -0.0007 0.7301
vn 0.7577 0.0461 0.6509
vn 0.9872 -0.1338 -0.0871
vn 0.9879 0.1305 -0.0841
vn -0.9871 0.1332 -0.0888
vn -0.9741 -0.1279 -0.1863
vn 0.7092 0.0442 0.7037
vn -0.7565 -0.0494 0.6521
s off
f 28//1 2//1 32//1
f 38//2 3//2 4//2
f 38//3 35//3 3//3
f 39//4 9//4 10//4
f 39//5 33//5 9//5
f 6//6 5//6 11//6
f 24//7 23//7 12//7
f 25//8 13//8 14//8
f 7//9 8//9 31//9
f 15//10 7//10 8//10
f 26//11 15//11 8//11
f 16//12 26//12 25//12
f 16//13 15//13 26//13
f 17//14 16//14 25//14
f 16//15 18//15 19//15
f 17//16 16//16 19//16
f 21//17 18//17 20//17
f 52//18 20//18 18//18
f 51//19 20//19 52//19
f 51//20 21//20 20//20
f 22//21 51//21 50//21
f 22//22 21//22 51//22
f 22//23 18//23 21//23
f 16//24 52//24 18//24
f 49//25 52//25 16//25
f 53//26 52//26 49//26
f 53//27 50//27 52//27
f 1//28 53//28 49//28
f 1//29 49//29 16//29
f 15//30 50//30 53//30
f 15//31 22//31 50//31
f 15//32 53//32 1//32
f 15//33 1//33 16//33
f 51//34 52//34 50//34
f 15//35 28//35 27//35
f 15//36 27//36 22//36
f 6//37 5//37 18//37
f 48//38 6//38 18//38
f 22//39 48//39 18//39
f 23//40 48//40 22//40
f 24//41 23//41 22//41
f 10//42 26//42 9//42
f 8//43 31//43 10//43
f 26//44 8//44 10//44
f 25//45 9//45 14//45
f 25//46 26//46 9//46
f 6//47 11//47 4//47
f 48//48 6//48 4//48
f 48//49 3//49 4//49
f 23//50 3//50 12//50
f 23//51 48//51 3//51
f 5//52 19//52 18//52
f 22//53 27//53 24//53
f 25//54 17//54 13//54
f 15//55 7//55 28//55
f 29//56 13//56 17//56
f 29//57 17//57 19//57
f 29//58 19//58 30//58
f 5//59 30//59 19//59
f 30//60 5//60 11//60
f 2//61 7//61 31//61
f 7//62 2//62 28//62
f 28//63 32//63 27//63
f 12//64 24//64 32//64
f 27//65 32//65 24//65
f 33//66 34//66 45//66
f 30//67 43//67 46//67
f 34//68 30//68 43//68
f 29//69 30//69 34//69
f 29//70 45//70 34//70
f 29//71 13//71 45//71
f 14//72 13//72 45//72
f 11//73 30//73 46//73
f 2//74 31//74 47//74
f 2//75 37//75 47//75
f 2//76 36//76 37//76
f 2//77 32//77 36//77
f 32//78 35//78 36//78
f 32//79 12//79 35//79
f 38//80 46//80 11//80
f 33//81 45//81 14//81
f 47//82 39//82 31//82
f 39//83 40//83 37//83
f 33//84 40//84 39//84
f 41//85 40//85 33//85
f 34//86 41//86 33//86
f 41//87 42//87 43//87
f 34//88 41//88 43//88
f 41//89 44//89 42//89
f 40//90 44//90 41//90
f 40//91 36//91 44//91
f 40//92 37//92 36//92
f 38//93 43//93 42//93
f 44//94 35//94 38//94
f 44//95 38//95 42//95
f 36//96 35//96 44//96
f 39//97 31//97 10//97
f 33//98 9//98 14//98
f 38//99 11//99 4//99
f 35//100 3//100 12//100
f 46//101 43//101 38//101
f 47//102 37//102 39//102
