# Blender v2.79 (sub 0) OBJ File: 'bittle_urdf_lowpoly_c_imu.blend'
# www.blender.org
o left_front_knee_c_left_knee.003
v -0.035649 0.340452 0.007388
v -0.050517 0.339766 0.007671
v -0.001487 0.361296 -0.030289
v -0.089078 0.365836 -0.008527
v -0.084622 0.399617 0.027033
v -0.073218 0.339256 -0.000639
v -0.008944 0.414660 -0.058854
v -0.085724 0.393066 -0.067150
v -0.007184 0.421550 0.032705
v -0.011464 0.457473 -0.025512
v -0.089046 0.451697 -0.009756
v -0.013337 0.343396 -0.000792
v -0.042484 0.105211 -0.012714
v -0.022636 0.113182 -0.000747
v -0.043545 0.135362 0.008356
v -0.009894 -0.190164 0.000521
v -0.086979 0.412641 -0.020860
v -0.007887 0.431249 -0.029372
v -0.048449 0.241802 0.011754
v -0.024279 0.158819 0.028847
v -0.030941 -0.165695 -0.064243
v -0.003979 -0.148401 0.086456
v -0.030074 -0.122644 0.067872
v -0.024282 -0.040849 0.072005
v -0.031167 0.099894 0.051998
v -0.028462 0.242722 0.012080
v -0.021676 -0.152496 -0.003314
v -0.023749 -0.190248 -0.005794
v -0.035238 0.121478 -0.013036
v -0.022676 0.108423 -0.016770
v -0.004651 0.135209 -0.062745
v -0.005384 -0.167241 -0.067580
v -0.049032 -0.198211 -0.053192
v -0.036710 -0.163906 0.086035
v -0.049665 0.121337 -0.073221
v -0.049049 0.172698 -0.023935
v -0.027506 0.154700 -0.042048
v -0.095194 0.043918 -0.039190
v -0.085474 -0.139909 0.055579
v -0.120715 0.004978 -0.027868
v -0.094177 0.046219 0.029476
v -0.087737 -0.140416 -0.062883
v -0.125256 -0.056389 -0.052927
v -0.128475 -0.090856 0.042604
v -0.122866 -0.155086 -0.021228
v -0.132390 -0.022004 0.011001
v 0.080253 -0.058912 0.050776
v 0.075550 0.037769 0.048871
v 0.036725 -0.043377 0.051129
v 0.078695 -0.017193 0.049949
v -0.058526 0.131400 0.045149
v 0.039863 0.001571 0.050166
v -0.045467 0.126984 0.031561
v 0.074875 0.066877 0.048282
v 0.037229 0.045682 0.049300
v 0.095631 -0.124460 0.054704
v -0.038001 -0.165467 -0.058249
v -0.029634 -0.174146 -0.013326
v -0.032772 -0.154009 -0.024375
v -0.031507 -0.158788 0.017312
v -0.035083 -0.176967 0.047496
v -0.045718 -0.157233 0.005971
v -0.046090 -0.156508 -0.014746
v -0.038881 -0.142900 0.053600
v -0.045081 -0.172724 0.000754
v -0.048383 0.115548 0.005154
v -0.055394 0.101979 -0.066294
v -0.047748 0.123138 -0.016210
v -0.044435 0.102135 -0.027634
v -0.046718 0.125182 -0.059243
v -0.053866 0.105643 0.019660
v 0.106487 0.086142 0.026533
v 0.104409 0.090597 -0.047744
v 0.093135 -0.135408 -0.043649
v 0.108883 -0.123812 -0.019400
v 0.097063 -0.119208 -0.063458
v 0.096710 -0.128989 0.032068
v 0.104870 0.099482 -0.066896
v -0.094478 0.090478 0.049915
v -0.096267 0.088129 -0.065791
v 0.096280 -0.134732 -0.024463
v 0.105153 -0.134023 0.005037
v 0.092659 -0.135407 -0.064823
v 0.104058 0.079673 -0.067815
v 0.111593 -0.137694 -0.015284
v 0.106365 -0.130987 -0.012891
v 0.097718 -0.131144 -0.012701
v 0.105919 0.097102 0.048294
v -0.129683 -0.100365 -0.022324
v -0.136061 -0.035409 -0.014089
v -0.131122 -0.069885 0.005774
v 0.106365 -0.130987 -0.012891
v -0.160472 -0.089368 0.011426
v -0.162016 -0.107599 -0.008466
v -0.162119 -0.078283 -0.011077
v -0.123531 -0.089835 -0.003845
v 0.105728 -0.124270 -0.003068
v 0.111049 -0.138774 -0.009602
v -0.049598 -0.145045 -0.007734
v -0.061265 -0.175270 -0.016160
v -0.044250 -0.163761 -0.013544
v -0.053104 -0.161297 0.015268
v 0.017080 -0.158889 -0.004190
v -0.066049 0.103956 -0.024781
v -0.064338 0.126349 -0.008608
v -0.067717 0.103094 0.009129
v 0.004285 0.113808 -0.009575
vn 0.0427 0.8516 0.5224
vn -0.1174 0.6913 -0.7130
vn -0.2023 0.5943 -0.7784
vn -0.2152 0.5512 0.8062
vn -0.2117 0.0750 -0.9744
vn 0.2090 -0.9376 0.2780
vn -0.2508 -0.5604 0.7893
vn 0.1299 -0.7269 0.6743
vn -0.2345 -0.4840 -0.8430
vn -0.4233 -0.2131 -0.8806
vn -0.2498 0.8477 -0.4680
vn -0.1935 0.9443 0.2663
vn 0.5803 0.0424 0.8133
vn -0.0102 0.5237 -0.8518
vn -0.3392 0.4340 -0.8346
vn -0.6022 -0.7949 0.0736
vn 0.8385 -0.2805 -0.4672
vn -0.1250 0.0699 -0.9897
vn -0.0441 -0.9916 0.1217
vn -0.7579 -0.6188 0.2066
vn -0.5801 -0.0001 0.8145
vn -0.7735 0.0869 0.6278
vn -0.0148 -0.0326 0.9994
vn 0.6692 0.7146 -0.2039
vn -0.7463 -0.1660 -0.6446
vn -0.9932 -0.0685 0.0939
vn 0.1456 -0.9405 -0.3070
vn -0.9630 0.0700 -0.2602
vn -0.9252 -0.0858 -0.3696
vn -0.9411 -0.2742 0.1980
vn 0.8134 0.1207 0.5690
vn 0.3751 0.9197 -0.1159
vn 0.9734 0.1794 0.1424
vn -0.6315 -0.4214 -0.6509
vn -0.9548 0.2857 -0.0825
vn -0.2436 0.6695 0.7017
vn -0.9965 -0.0678 0.0493
vn -0.9877 0.0585 -0.1450
vn -0.9711 -0.0522 0.2330
vn -0.9984 -0.0189 0.0533
vn -0.9890 0.0451 0.1406
vn -0.9232 -0.0035 0.3842
vn -0.9828 0.0861 -0.1634
vn 0.2850 0.7183 -0.6347
vn -0.9547 -0.2974 0.0121
vn -0.7975 -0.0332 0.6024
vn -0.9806 0.0785 -0.1799
vn 0.8013 -0.0456 -0.5966
vn 0.9029 -0.3857 -0.1896
vn -0.5804 -0.7731 0.2557
vn 0.8936 -0.3959 -0.2115
vn -0.8910 0.4011 0.2126
vn -0.9511 -0.2078 0.2285
vn -0.9765 -0.1454 0.1588
vn -0.9403 -0.2911 -0.1763
vn 0.5658 -0.1888 0.8026
vn 0.3622 -0.2519 0.8974
vn 0.6648 -0.0135 0.7469
vn 0.2421 0.1739 0.9545
vn 0.3198 0.1676 0.9326
vn -0.7769 -0.5529 -0.3013
vn -0.8214 -0.3585 0.4435
vn 0.9455 -0.1883 0.2656
vn 0.2172 -0.4369 -0.8729
vn -0.9783 -0.1021 -0.1805
vn -0.3348 -0.1780 0.9253
vn 0.4440 0.0569 0.8942
vn 0.7761 -0.5416 -0.3230
vn -0.1680 -0.9536 0.2498
vn -0.3051 0.1382 0.9422
vn -0.3433 0.1352 0.9294
vn 0.2734 0.0607 0.9600
vn -0.2222 -0.0150 0.9749
vn 0.0456 -0.6919 0.7205
vn 0.5289 -0.2217 0.8192
vn 0.0120 -0.1368 0.9905
vn -0.0196 -0.7791 -0.6266
vn 0.0584 -0.8637 -0.5006
vn -0.0596 0.0989 0.9933
vn -0.0989 0.0929 0.9908
vn 0.5061 -0.8270 -0.2449
vn 0.3920 -0.8378 0.3802
vn -0.1445 -0.9577 0.2488
vn -0.9872 0.0095 0.1592
vn -0.9966 -0.0782 0.0250
vn -0.9976 -0.0620 0.0322
vn -0.9987 -0.0514 -0.0054
vn -0.9986 0.0339 -0.0414
vn 0.9993 -0.0341 -0.0166
vn -0.9958 -0.0911 -0.0030
vn -0.8371 0.5469 -0.0059
vn -0.5141 0.0889 -0.8531
vn -0.9990 -0.0376 -0.0221
vn -0.9115 0.0150 0.4110
vn -0.9971 -0.0373 0.0662
vn -0.9998 -0.0148 0.0158
vn -0.9998 -0.0139 0.0153
vn 0.2097 0.4177 0.8840
vn -0.7013 -0.2333 -0.6736
vn -0.7258 -0.5158 0.4552
vn 0.3820 -0.9242 -0.0033
vn -0.0196 0.0198 0.9996
vn -0.0174 0.0186 0.9997
vn -0.0751 0.0323 0.9967
vn 0.0644 -0.0665 0.9957
vn 0.0420 -0.0071 0.9991
vn -0.1596 0.2319 0.9596
vn -0.0129 0.0347 0.9993
vn -0.3093 0.0002 0.9510
vn 0.0206 0.0200 0.9996
vn 0.0155 0.0206 0.9997
vn 0.4964 -0.5636 0.6603
vn 0.0321 0.0673 0.9972
vn 0.0154 0.0205 0.9997
vn 0.0148 0.0252 0.9996
vn 0.0154 0.0206 0.9997
vn 0.0154 0.0204 0.9997
vn 0.0154 0.0203 0.9997
vn -0.1991 0.0120 0.9799
vn 0.3598 0.5459 0.7567
vn 0.9949 -0.0517 0.0867
vn -0.4682 -0.8797 -0.0828
vn -0.1012 0.9880 0.1163
vn 0.0823 0.9960 0.0334
vn -0.4521 -0.4822 -0.7504
vn 0.0231 0.9800 -0.1975
vn -0.9363 0.3500 0.0291
vn -0.9708 -0.1946 -0.1404
vn -0.9742 -0.1069 0.1987
vn 0.0955 -0.9893 -0.1102
vn -0.9731 -0.1411 0.1821
vn -0.9522 0.1097 -0.2850
vn -0.9423 0.3346 0.0025
vn -0.9504 -0.2831 -0.1288
vn 0.6442 -0.7349 0.2121
vn -0.9802 -0.0503 -0.1917
vn -0.0954 0.9173 -0.3867
vn -0.9996 0.0189 -0.0230
vn 0.9737 -0.2277 -0.0089
vn 0.9978 -0.0449 0.0487
vn 0.9994 -0.0351 0.0017
vn 0.9990 -0.0327 -0.0299
vn 0.9987 -0.0502 0.0099
vn 0.9119 -0.3872 -0.1358
vn 0.9815 0.0849 0.1718
vn 0.0511 -0.9788 0.1983
vn 0.5839 -0.8068 0.0902
vn 0.2451 0.9684 0.0460
vn 0.1632 0.9848 0.0591
vn 0.6897 -0.6774 -0.2558
vn 0.1314 -0.9708 0.2005
vn 0.1587 -0.8922 0.4229
vn 0.1571 -0.9846 0.0761
vn 0.2376 -0.9642 -0.1177
vn 0.2240 -0.9746 -0.0051
vn 0.1831 -0.9395 0.2895
vn -0.5758 -0.5833 -0.5728
vn 0.3237 -0.8378 0.4397
vn -0.6181 -0.2736 0.7370
vn -0.0131 0.0875 -0.9961
vn -0.0079 -0.0130 -0.9999
vn -0.0015 -0.0139 -0.9999
vn -0.0125 -0.0215 -0.9997
vn -0.0030 0.0465 -0.9989
vn -0.0052 -0.1919 -0.9814
vn -0.4507 -0.8926 0.0124
vn -0.0545 -0.9789 0.1971
vn 0.9523 -0.2247 0.2066
vn -0.3211 0.9464 -0.0346
vn -0.3586 0.9334 -0.0134
vn 0.2986 0.9541 -0.0230
vn -0.9160 0.3809 -0.1263
vn 0.1269 0.8872 -0.4435
vn -0.0934 -0.4566 0.8848
vn 0.0192 0.9220 -0.3867
vn 0.2608 0.9641 0.0505
vn 0.0739 0.9970 -0.0250
vn 0.0157 0.9069 0.4211
vn -0.3893 -0.9161 0.0960
vn -0.2545 -0.9619 0.0997
vn 0.9831 0.0801 0.1647
vn 0.9834 0.0590 -0.1718
vn 0.9897 0.1396 0.0303
vn 0.9274 -0.2672 -0.2618
vn 0.8156 0.5181 -0.2578
vn 0.4845 -0.1604 -0.8600
vn 0.7050 0.3246 0.6305
vn 0.0041 0.6711 0.7413
vn 0.4633 0.3054 -0.8319
vn 0.6914 0.4795 0.5405
vn -0.9918 -0.1228 0.0364
vn -0.9414 -0.1236 -0.3137
vn -0.9699 -0.0655 -0.2344
vn -0.9037 0.2175 -0.3689
vn -0.9848 -0.0444 0.1678
vn -0.9981 -0.0323 0.0534
vn -0.9388 0.3414 -0.0450
vn -0.9924 -0.1055 0.0636
vn -0.0317 0.8145 -0.5792
vn 0.1067 -0.2277 0.9679
vn 0.0266 -0.3174 0.9479
vn -0.3574 -0.8802 0.3122
vn 0.9652 -0.2606 -0.0217
vn 0.9991 -0.0412 0.0050
vn -0.3767 -0.0835 -0.9226
vn 0.2073 0.6683 -0.7144
vn 0.2709 -0.9532 0.1346
vn -0.4436 0.7907 0.4220
vn -0.4231 0.7740 0.4711
vn -0.5845 -0.5751 0.5724
vn 0.1583 -0.0870 -0.9835
vn 0.1861 0.8867 0.4232
vn 0.2563 -0.7224 0.6422
vn 0.9978 -0.0032 0.0670
vn 0.8182 0.5551 0.1494
vn -0.5083 -0.8580 0.0738
vn -0.1674 -0.4751 -0.8639
vn -0.0020 0.8314 -0.5556
vn -0.8736 -0.4263 0.2348
vn 0.4569 0.4993 -0.7362
vn -0.9373 0.3355 0.0942
vn -0.0451 0.2844 -0.9576
vn 0.1173 0.3249 -0.9385
vn 0.0630 -0.9926 0.1042
vn 0.1349 0.7994 0.5854
vn 0.5207 -0.8221 0.2303
vn 0.0942 0.5781 -0.8105
vn 0.1426 -0.9896 -0.0181
vn 0.1193 0.5911 0.7977
vn -0.9930 0.1091 -0.0461
s off
f 9//1 10//1 11//1
f 7//2 8//2 11//2
f 10//3 7//3 11//3
f 9//4 11//4 5//4
f 13//5 29//5 30//5
f 13//6 30//6 14//6
f 15//7 13//7 14//7
f 3//8 5//8 4//8
f 7//9 3//9 4//9
f 7//10 4//10 17//10
f 18//11 7//11 17//11
f 18//12 17//12 5//12
f 3//13 18//13 5//13
f 37//14 19//14 26//14
f 36//15 19//15 37//15
f 20//16 36//16 37//16
f 15//17 36//17 20//17
f 37//18 32//18 21//18
f 22//19 21//19 32//19
f 22//20 23//20 21//20
f 24//21 23//21 22//21
f 26//22 15//22 20//22
f 19//23 15//23 26//23
f 29//24 15//24 14//24
f 26//25 20//25 25//25
f 1//26 37//26 26//26
f 28//27 32//27 16//27
f 27//28 32//28 28//28
f 1//29 26//29 25//29
f 22//30 27//30 16//30
f 24//31 1//31 25//31
f 22//32 32//32 27//32
f 37//33 25//33 30//33
f 29//34 37//34 30//34
f 25//35 14//35 30//35
f 37//36 29//36 14//36
f 20//37 37//37 14//37
f 20//38 14//38 25//38
f 19//39 15//39 25//39
f 2//40 36//40 19//40
f 27//41 21//41 28//41
f 2//42 19//42 25//42
f 23//43 28//43 34//43
f 23//44 16//44 28//44
f 23//45 27//45 16//45
f 35//46 21//46 37//46
f 34//47 24//47 23//47
f 24//48 2//48 25//48
f 37//49 25//49 13//49
f 23//50 21//50 27//50
f 13//51 35//51 37//51
f 29//52 35//52 13//52
f 36//53 35//53 29//53
f 25//54 15//54 13//54
f 36//55 29//55 15//55
f 1//56 37//56 31//56
f 1//57 31//57 12//57
f 31//58 37//58 32//58
f 12//59 24//59 22//59
f 1//60 24//60 12//60
f 8//61 6//61 4//61
f 6//62 5//62 4//62
f 12//63 3//63 9//63
f 7//64 3//64 8//64
f 5//65 6//65 34//65
f 6//66 36//66 2//66
f 35//67 33//67 21//67
f 33//68 21//68 28//68
f 34//69 33//69 28//69
f 2//70 34//70 24//70
f 6//71 34//71 2//71
f 35//72 33//72 32//72
f 31//73 35//73 32//73
f 36//74 35//74 31//74
f 12//75 36//75 31//75
f 6//76 36//76 12//76
f 6//77 8//77 3//77
f 6//78 3//78 12//78
f 5//79 34//79 22//79
f 5//80 22//80 9//80
f 33//81 32//81 16//81
f 34//82 16//82 22//82
f 34//83 33//83 16//83
f 9//84 12//84 22//84
f 10//85 7//85 9//85
f 11//86 17//86 5//86
f 11//87 8//87 17//87
f 17//88 8//88 4//88
f 9//89 7//89 18//89
f 9//90 18//90 3//90
f 40//91 41//91 38//91
f 42//92 40//92 38//92
f 42//93 38//93 80//93
f 39//94 41//94 40//94
f 39//95 79//95 41//95
f 79//96 80//96 38//96
f 41//97 79//97 38//97
f 39//98 46//98 44//98
f 42//99 45//99 43//99
f 39//100 44//100 45//100
f 42//101 39//101 45//101
f 88//102 54//102 48//102
f 88//103 48//103 50//103
f 88//104 50//104 56//104
f 88//105 55//105 54//105
f 49//106 39//106 64//106
f 88//107 71//107 55//107
f 49//108 64//108 56//108
f 55//109 71//109 52//109
f 52//110 39//110 49//110
f 50//111 55//111 52//111
f 53//112 51//112 71//112
f 47//113 49//113 56//113
f 48//114 55//114 50//114
f 52//115 79//115 39//115
f 54//116 55//116 48//116
f 50//117 49//117 47//117
f 50//118 52//118 49//118
f 50//119 47//119 56//119
f 71//120 79//120 52//120
f 61//121 58//121 60//121
f 61//122 57//122 58//122
f 63//123 60//123 59//123
f 63//124 62//124 60//124
f 63//125 59//125 58//125
f 64//126 57//126 63//126
f 64//127 63//127 62//127
f 65//128 63//128 57//128
f 61//129 62//129 65//129
f 61//130 65//130 57//130
f 61//131 64//131 62//131
f 71//132 51//132 66//132
f 68//133 67//133 71//133
f 51//134 68//134 66//134
f 51//135 67//135 68//135
f 71//136 68//136 69//136
f 53//137 69//137 66//137
f 66//138 68//138 70//138
f 53//139 66//139 70//139
f 56//140 72//140 88//140
f 76//141 84//141 73//141
f 76//142 73//142 72//142
f 76//143 72//143 56//143
f 74//144 76//144 81//144
f 97//145 56//145 82//145
f 82//146 56//146 77//146
f 75//147 97//147 87//147
f 76//148 56//148 97//148
f 76//149 97//149 75//149
f 76//150 75//150 81//150
f 64//151 77//151 56//151
f 60//152 77//152 64//152
f 59//153 74//153 77//153
f 59//154 77//154 60//154
f 57//155 83//155 74//155
f 57//156 74//156 59//156
f 65//157 63//157 58//157
f 65//158 58//158 60//158
f 62//159 65//159 60//159
f 76//160 83//160 42//160
f 67//161 42//161 80//161
f 67//162 76//162 42//162
f 84//163 76//163 67//163
f 78//164 84//164 67//164
f 83//165 57//165 42//165
f 39//166 42//166 57//166
f 64//167 39//167 57//167
f 71//168 69//168 66//168
f 71//169 67//169 80//169
f 79//170 71//170 80//170
f 51//171 53//171 70//171
f 51//172 70//172 67//172
f 72//173 71//173 88//173
f 72//174 53//174 71//174
f 73//175 69//175 53//175
f 73//176 53//176 72//176
f 73//177 67//177 69//177
f 78//178 67//178 73//178
f 77//179 74//179 81//179
f 77//180 81//180 82//180
f 60//181 64//181 61//181
f 57//182 59//182 58//182
f 70//183 68//183 69//183
f 67//184 70//184 69//184
f 82//185 81//185 87//185
f 81//186 75//186 85//186
f 86//187 85//187 75//187
f 87//188 86//188 75//188
f 40//189 42//189 43//189
f 39//190 40//190 46//190
f 44//191 89//191 45//191
f 89//192 43//192 45//192
f 90//193 43//193 89//193
f 90//194 40//194 43//194
f 46//195 90//195 91//195
f 46//196 91//196 44//196
f 46//197 40//197 90//197
f 90//198 89//198 91//198
f 92//199 86//199 87//199
f 92//200 85//200 86//200
f 87//201 85//201 92//201
f 87//202 81//202 85//202
f 83//203 76//203 74//203
f 78//204 73//204 84//204
f 89//205 94//205 95//205
f 91//206 89//206 95//206
f 89//207 44//207 94//207
f 91//208 95//208 93//208
f 44//209 91//209 93//209
f 44//210 93//210 94//210
f 96//211 94//211 95//211
f 96//212 95//212 93//212
f 96//213 93//213 94//213
f 86//214 97//214 82//214
f 98//215 86//215 82//215
f 82//216 87//216 98//216
f 92//217 86//217 98//217
f 92//218 97//218 86//218
f 98//219 97//219 92//219
f 87//220 97//220 98//220
f 100//221 102//221 99//221
f 100//222 99//222 101//222
f 101//223 99//223 103//223
f 102//224 101//224 103//224
f 99//225 102//225 103//225
f 100//226 101//226 102//226
f 104//227 105//227 107//227
f 106//228 104//228 107//228
f 105//229 106//229 107//229
f 105//230 104//230 106//230
