# Blender v2.79 (sub 0) OBJ File: 'bittle_urdf_lowpoly_c_imu.blend'
# www.blender.org
o right_front_knee_c_right_knee.003
v 0.034776 0.341311 0.028311
v 0.071296 0.371311 0.010742
v -0.011745 0.403398 0.057155
v -0.002673 0.343380 0.020216
v -0.011331 0.429289 -0.039962
v 0.067449 0.420165 0.055551
v 0.057331 0.343464 0.020900
v 0.030929 0.119914 -0.003032
v 0.037329 0.108981 -0.005357
v 0.017329 0.124271 0.019373
v 0.026639 0.121152 0.010525
v 0.017329 -0.157811 -0.006226
v 0.040177 -0.177810 -0.046832
v 0.022527 -0.184087 -0.004665
v 0.017329 -0.154578 0.009672
v 0.032731 -0.147617 0.046179
v 0.067768 0.448981 -0.013536
v -0.012671 0.410896 -0.003345
v 0.067329 0.414131 0.014035
v -0.014190 0.444398 0.013383
v 0.017329 0.243258 0.030266
v 0.037329 0.159192 0.044993
v 0.018827 -0.161083 -0.057303
v 0.027329 -0.027873 0.080312
v 0.037329 0.243288 0.029614
v 0.042804 0.125477 -0.058855
v 0.044145 -0.179939 0.084836
v -0.014594 0.370063 -0.017159
v 0.065377 0.384873 -0.041092
v -0.002671 -0.181864 -0.057204
v 0.009693 -0.169571 0.090159
v 0.011164 0.125923 -0.056612
v 0.018127 0.173714 -0.005148
v 0.019889 0.341317 0.028351
v 0.040562 0.175327 -0.008074
v 0.092395 0.048787 0.036564
v 0.092406 0.046407 -0.026893
v 0.092310 -0.139715 -0.054322
v 0.117830 -0.023194 0.039188
v 0.092877 -0.136638 0.061876
v 0.127525 -0.096118 0.063424
v 0.132347 -0.103027 -0.045117
v 0.126842 -0.146928 -0.004031
v 0.137960 -0.031333 -0.004429
v 0.129290 0.010982 -0.008895
v -0.039069 -0.000812 -0.054405
v -0.109293 0.080751 -0.055469
v -0.076238 0.034571 -0.054093
v -0.076585 -0.063119 -0.054937
v -0.033827 -0.045573 -0.054787
v -0.077247 -0.016966 -0.054542
v -0.038505 0.043380 -0.054020
v -0.077396 0.062194 -0.053853
v -0.094196 -0.117580 -0.050825
v -0.087537 -0.140972 -0.037363
v -0.088609 -0.129774 -0.058267
v 0.043341 -0.167124 0.014224
v 0.040169 -0.175053 0.044189
v 0.038330 -0.166971 -0.014915
v 0.044052 -0.175613 -0.048439
v 0.038858 -0.143416 -0.006850
v 0.053077 -0.164573 -0.008899
v 0.053077 -0.149133 0.005394
v 0.046359 -0.141476 -0.054886
v 0.049460 -0.152549 0.060230
v 0.053077 0.100858 0.002536
v 0.053077 0.132390 0.059439
v 0.042141 0.112698 0.059254
v 0.044102 0.129886 -0.045802
v 0.042481 0.126899 0.010208
v 0.043628 0.107220 0.015819
v 0.040395 0.100257 0.028572
v 0.039141 0.110282 -0.016284
v 0.046219 0.096033 -0.052468
v -0.109951 0.091318 -0.032287
v -0.100760 -0.126913 -0.001140
v -0.088972 -0.127753 0.063301
v -0.109033 0.094220 0.062721
v -0.110265 0.077196 0.044636
v 0.090967 0.094271 -0.053086
v 0.090976 0.093292 0.062652
v -0.088229 -0.139659 0.036413
v -0.099497 -0.143777 0.015964
v -0.106718 -0.129145 0.011285
v -0.100350 -0.135625 0.009159
v -0.093288 -0.130697 0.010376
v -0.094609 -0.138769 -0.007875
v 0.133367 -0.080633 0.024292
v 0.138078 -0.013837 0.010014
v 0.134059 -0.073873 -0.016970
v -0.100350 -0.135625 0.009159
v 0.164589 -0.080127 -0.011105
v 0.166914 -0.099644 0.008627
v 0.165063 -0.070310 0.010988
v 0.127499 -0.083880 0.003256
v -0.106717 -0.132725 0.009834
v -0.105428 -0.143913 0.004315
v 0.058746 -0.154753 0.019066
v 0.052550 -0.151894 -0.003548
v 0.058299 -0.176280 -0.000794
v -0.009733 -0.159758 0.002036
v 0.068994 -0.152304 -0.011715
v 0.054290 0.125204 0.011346
v 0.059753 0.099714 0.017776
v 0.052154 0.112486 -0.005160
v -0.009733 0.113282 0.004392
v 0.069602 0.119710 -0.009210
vn -0.1440 0.9501 -0.2768
vn 0.2067 0.3799 -0.9017
vn 0.0747 0.9202 0.3842
vn -0.1384 0.7189 0.6812
vn -0.8189 -0.3898 -0.4213
vn 0.5177 -0.4744 0.7120
vn -0.8927 -0.2006 -0.4035
vn -0.8367 -0.3514 0.4200
vn -0.1467 -0.3752 0.9153
vn -0.3060 -0.1012 0.9466
vn 0.3009 -0.2720 -0.9140
vn -0.2667 0.3201 -0.9091
vn -0.1916 0.6104 0.7685
vn 0.1727 0.4463 -0.8781
vn -0.1473 0.4743 -0.8679
vn -0.0297 0.4533 -0.8909
vn 0.8897 -0.4491 -0.0824
vn -0.0847 -0.4416 -0.8932
vn 0.8937 0.0249 -0.4480
vn 0.6911 -0.7228 0.0012
vn 0.0318 0.1798 0.9832
vn -0.7449 -0.0608 0.6644
vn -0.7671 0.3797 0.5171
vn 0.0294 0.9795 -0.1992
vn 0.3164 0.9094 -0.2699
vn -0.1086 -0.1788 -0.9779
vn -0.9989 -0.0265 -0.0379
vn 0.2835 -0.9587 -0.0240
vn -0.6604 -0.7281 0.1835
vn -0.9697 -0.0590 0.2370
vn -0.9398 -0.0290 -0.3405
vn -0.9740 -0.1017 0.2026
vn -0.9949 0.0046 -0.1004
vn 0.5155 0.1277 -0.8473
vn -0.8606 -0.4552 -0.2284
vn -0.9698 0.1512 -0.1912
vn -0.8777 -0.2066 -0.4324
vn -0.9410 0.1354 -0.3101
vn -0.9668 0.2548 0.0186
vn -0.9751 0.0904 0.2027
vn -0.9911 -0.0121 0.1324
vn -0.9972 0.0247 -0.0709
vn -0.9807 -0.1950 -0.0163
vn -0.9338 0.0313 0.3564
vn -0.9863 -0.1176 -0.1155
vn -0.8991 0.0820 -0.4300
vn -0.9962 -0.0334 0.0801
vn 0.9678 -0.2476 0.0457
vn -0.9777 0.2059 -0.0419
vn 0.2997 0.9540 -0.0036
vn -0.2846 -0.9586 -0.0025
vn -0.9717 -0.0925 0.2174
vn -0.7078 -0.3047 -0.6373
vn 0.3228 -0.1919 0.9268
vn 0.5605 0.0865 0.8236
vn 0.2986 0.1272 0.9459
vn 0.8350 -0.5014 -0.2265
vn -0.9623 -0.2323 0.1411
vn 0.8710 -0.2930 0.3943
vn -0.2110 -0.3411 -0.9161
vn -0.9850 -0.0464 -0.1665
vn -0.9881 -0.0201 0.1523
vn -0.3467 -0.3320 0.8773
vn 0.0067 -0.0022 1.0000
vn 0.6524 -0.6765 -0.3415
vn -0.3012 -0.9478 0.1043
vn -0.4390 0.1165 0.8909
vn -0.3270 0.1199 0.9374
vn -0.2387 0.0405 0.9702
vn 0.0706 -0.0051 0.9975
vn 0.0396 -0.7122 0.7009
vn -0.0110 -0.1687 0.9856
vn -0.6617 -0.2868 0.6927
vn -0.0127 -0.8307 -0.5565
vn 0.0078 -0.8127 -0.5827
vn 0.1648 0.0417 0.9854
vn 0.0080 0.0578 0.9983
vn 0.0987 -0.9949 -0.0191
vn -0.2721 -0.9568 0.1026
vn -0.9821 0.0470 0.1826
vn -0.9986 -0.0216 -0.0474
vn -0.9990 -0.0126 0.0440
vn -0.9986 0.0508 -0.0110
vn -0.9999 0.0133 0.0010
vn -0.9938 -0.0105 0.1107
vn -0.9955 -0.0935 0.0165
vn 0.9429 0.3328 -0.0123
vn 0.2719 0.1309 0.9534
vn 0.9991 0.0081 0.0405
vn 0.9990 0.0060 -0.0440
vn 0.9995 0.0318 0.0002
vn 0.9996 0.0295 -0.0009
vn 0.7597 0.2749 -0.5892
vn 0.0935 0.1451 -0.9850
vn 0.6390 -0.5668 -0.5200
vn -0.2417 -0.9700 0.0269
vn 0.6741 -0.5932 0.4400
vn 0.0523 0.0077 -0.9986
vn 0.0570 0.0111 -0.9983
vn -0.0552 -0.0276 -0.9981
vn -0.2335 -0.4752 -0.8483
vn 0.0118 0.0109 -0.9999
vn 0.0195 -0.0019 -0.9998
vn 0.0271 0.0237 -0.9994
vn 0.0130 0.0086 -0.9999
vn -0.6516 0.1546 -0.7426
vn 0.0110 0.0098 -0.9999
vn -0.0001 0.0087 -1.0000
vn -0.0183 0.0532 -0.9984
vn 0.0063 0.0053 -1.0000
vn 0.0000 0.0086 -1.0000
vn -0.0000 0.0085 -1.0000
vn -0.2415 0.0048 -0.9704
vn -0.0126 0.0311 -0.9994
vn -0.9211 -0.3411 -0.1878
vn -0.6059 -0.7893 0.1001
vn -0.9723 0.2297 -0.0421
vn 0.3179 0.3007 -0.8991
vn 0.6710 0.5037 -0.5441
vn -0.3940 0.5679 0.7227
vn 0.3416 0.9364 0.0809
vn -0.6019 0.7808 -0.1673
vn 0.9909 0.0915 -0.0988
vn 0.8851 -0.4645 0.0295
vn 0.3456 -0.9213 0.1783
vn 0.9756 -0.1026 -0.1940
vn -0.3534 -0.9270 0.1254
vn 0.9300 0.3647 0.0464
vn 0.5594 -0.8284 -0.0280
vn 0.9777 -0.0029 -0.2101
vn 0.8702 -0.4842 0.0909
vn 0.4600 0.8828 -0.0956
vn 0.9875 0.0875 -0.1308
vn 0.8123 0.4425 -0.3799
vn -0.9374 -0.1450 -0.3168
vn -0.7429 0.6485 0.1657
vn 0.9890 -0.1435 -0.0347
vn -0.9578 0.2859 0.0289
vn -0.9971 -0.0758 0.0062
vn -0.9962 -0.0786 0.0386
vn -0.9942 -0.1054 -0.0234
vn -0.9114 -0.3655 -0.1891
vn -0.9098 -0.3687 -0.1906
vn -0.4828 0.8700 0.0997
vn -0.5584 -0.8245 0.0914
vn -0.9583 -0.2703 0.0932
vn -0.0646 -0.8810 -0.4686
vn -0.0092 -0.9991 -0.0418
vn -0.2665 -0.9637 0.0147
vn 0.1106 -0.8435 -0.5257
vn -0.1533 -0.9051 0.3966
vn -0.1927 -0.5155 0.8349
vn 0.1743 -0.9841 -0.0351
vn -0.0710 -0.0040 0.9975
vn 0.0084 0.0122 0.9999
vn 0.0224 0.0046 0.9997
vn -0.9846 -0.0886 0.1505
vn 0.0024 -0.1095 0.9940
vn 0.9130 -0.4059 0.0407
vn 0.3432 -0.9390 0.0232
vn 0.0393 -0.9945 -0.0967
vn -0.5594 -0.8289 -0.0009
vn 0.3739 0.9192 -0.1235
vn 0.0395 0.9992 0.0085
vn -0.8727 0.4841 0.0629
vn -0.0810 0.9061 -0.4153
vn -0.0767 0.9225 -0.3783
vn -0.1247 0.9676 0.2197
vn -0.1430 0.9736 0.1781
vn -0.1786 0.9153 -0.3610
vn -0.1045 0.7277 -0.6779
vn 0.3113 -0.9501 0.0198
vn -0.9676 -0.1182 -0.2232
vn -0.9781 0.0867 -0.1893
vn -0.9875 0.0379 -0.1527
vn -0.3395 0.2557 0.9052
vn -0.9829 -0.0256 -0.1822
vn -0.9956 0.0914 0.0196
vn -0.9151 0.3891 -0.1058
vn 0.1295 0.9451 0.3001
vn -0.8270 -0.2466 0.5053
vn -0.6884 -0.5059 -0.5198
vn -0.0322 0.2829 -0.9586
vn 0.4337 -0.0062 -0.9010
vn 0.3877 0.7052 0.5936
vn 0.9295 0.3429 0.1360
vn 0.9957 -0.0788 0.0492
vn 0.9733 -0.2222 0.0574
vn 0.9542 0.2006 0.2218
vn 0.8094 0.0676 0.5834
vn 0.9965 -0.0572 0.0612
vn 0.5340 0.6239 0.5707
vn 0.9958 -0.0918 0.0017
vn 0.9932 -0.1055 0.0489
vn 0.9603 0.1737 -0.2183
vn -0.1422 0.4328 -0.8902
vn -0.0101 -0.6441 -0.7649
vn 0.4884 -0.5285 -0.6944
vn 0.3999 -0.0484 0.9153
vn -0.3654 -0.8843 0.2907
vn -0.2476 0.9568 0.1526
vn 0.7409 0.4435 -0.5044
vn 0.2568 0.8811 -0.3970
vn -0.0108 -0.7116 -0.7025
vn -0.1696 -0.0897 0.9814
vn -0.2409 0.8888 -0.3898
vn -0.1911 -0.7090 -0.6788
vn -0.8388 -0.1357 -0.5272
vn -0.7734 0.2065 -0.5993
vn 0.3864 0.7117 0.5867
vn -0.1110 -0.4499 0.8862
vn 0.6443 -0.7156 0.2698
vn 0.1366 -0.5800 0.8031
vn -0.0209 0.7897 0.6131
vn 0.8787 -0.3466 -0.3282
vn -0.7118 0.3842 0.5881
vn 0.0765 0.9916 0.1044
vn -0.0724 -0.1288 -0.9890
vn -0.1101 0.9819 0.1543
vn -0.1325 -0.6706 0.7299
vn -0.9172 0.2802 -0.2831
vn -0.4396 -0.2025 -0.8751
vn 0.8014 0.3020 0.5162
vn -0.4272 0.7421 -0.5165
vn -0.0826 0.7946 -0.6015
vn -0.1446 0.2128 0.9663
vn -0.0829 -0.8821 -0.4637
vn 0.2170 -0.8205 -0.5288
s off
f 17//1 5//1 20//1
f 17//2 29//2 5//2
f 6//3 17//3 20//3
f 6//4 20//4 3//4
f 10//5 8//5 9//5
f 10//6 9//6 11//6
f 14//7 12//7 13//7
f 15//8 14//8 16//8
f 19//9 20//9 28//9
f 2//10 19//10 28//10
f 17//11 2//11 28//11
f 17//12 28//12 18//12
f 19//13 17//13 18//13
f 19//14 18//14 20//14
f 33//15 25//15 35//15
f 33//16 21//16 25//16
f 10//17 35//17 22//17
f 10//18 33//18 35//18
f 32//19 9//19 23//19
f 16//20 31//20 23//20
f 21//21 22//21 25//21
f 21//22 10//22 22//22
f 24//23 9//23 32//23
f 12//24 15//24 16//24
f 12//25 16//25 13//25
f 25//26 22//26 24//26
f 1//27 35//27 25//27
f 14//28 13//28 27//28
f 16//29 23//29 13//29
f 16//30 14//30 27//30
f 1//31 25//31 24//31
f 27//32 24//32 16//32
f 26//33 13//33 9//33
f 9//34 13//34 23//34
f 8//35 26//35 9//35
f 35//36 26//36 8//36
f 24//37 11//37 9//37
f 35//38 8//38 11//38
f 22//39 35//39 11//39
f 22//40 11//40 24//40
f 21//41 10//41 24//41
f 34//42 33//42 21//42
f 12//43 23//43 14//43
f 34//44 21//44 24//44
f 31//45 15//45 14//45
f 31//46 24//46 16//46
f 32//47 24//47 10//47
f 31//48 23//48 15//48
f 15//49 23//49 12//49
f 10//50 8//50 32//50
f 11//51 32//51 8//51
f 33//52 32//52 11//52
f 10//53 33//53 11//53
f 1//54 35//54 7//54
f 7//55 24//55 27//55
f 1//56 24//56 7//56
f 29//57 2//57 7//57
f 4//58 3//58 28//58
f 2//59 6//59 7//59
f 29//60 28//60 5//60
f 3//61 4//61 31//61
f 34//62 32//62 33//62
f 4//63 32//63 34//63
f 32//64 30//64 23//64
f 30//65 23//65 14//65
f 31//66 30//66 14//66
f 34//67 31//67 24//67
f 4//68 31//68 34//68
f 26//69 30//69 13//69
f 26//70 32//70 30//70
f 32//71 26//71 35//71
f 4//72 35//72 7//72
f 4//73 32//73 35//73
f 28//74 29//74 7//74
f 4//75 28//75 7//75
f 6//76 31//76 27//76
f 3//77 31//77 6//77
f 30//78 13//78 27//78
f 31//79 30//79 27//79
f 6//80 7//80 27//80
f 20//81 5//81 18//81
f 3//82 20//82 28//82
f 18//83 5//83 28//83
f 6//84 17//84 19//84
f 17//85 29//85 2//85
f 6//86 19//86 2//86
f 39//87 37//87 36//87
f 40//88 39//88 36//88
f 40//89 36//89 81//89
f 38//90 80//90 37//90
f 80//91 81//91 36//91
f 37//92 80//92 36//92
f 37//93 44//93 42//93
f 38//94 37//94 42//94
f 38//95 42//95 43//95
f 40//96 38//96 43//96
f 40//97 43//97 41//97
f 47//98 48//98 51//98
f 47//99 53//99 48//99
f 47//100 51//100 54//100
f 47//101 52//101 53//101
f 50//102 38//102 64//102
f 47//103 74//103 52//103
f 50//104 64//104 56//104
f 52//105 74//105 46//105
f 54//106 49//106 56//106
f 46//107 38//107 50//107
f 51//108 52//108 46//108
f 49//109 50//109 56//109
f 46//110 80//110 38//110
f 53//108 52//108 48//108
f 51//111 50//111 49//111
f 51//112 46//112 50//112
f 51//113 49//113 54//113
f 48//108 52//108 51//108
f 74//114 80//114 46//114
f 61//115 57//115 58//115
f 60//116 57//116 59//116
f 60//117 58//117 57//117
f 62//118 59//118 61//118
f 63//119 62//119 61//119
f 57//120 63//120 61//120
f 64//121 65//121 63//121
f 62//122 57//122 65//122
f 64//123 63//123 62//123
f 57//124 63//124 65//124
f 60//125 62//125 65//125
f 60//126 64//126 62//126
f 68//127 74//127 66//127
f 69//128 70//128 66//128
f 69//129 67//129 70//129
f 70//130 67//130 71//130
f 71//131 67//131 68//131
f 66//132 71//132 68//132
f 74//133 69//133 66//133
f 70//134 66//134 73//134
f 70//135 71//135 72//135
f 73//136 72//136 71//136
f 73//137 70//137 68//137
f 69//138 73//138 68//138
f 54//139 75//139 47//139
f 77//140 75//140 54//140
f 77//141 79//141 75//141
f 87//142 76//142 54//142
f 87//143 54//143 55//143
f 77//144 54//144 76//144
f 77//145 76//145 86//145
f 77//146 86//146 82//146
f 64//147 55//147 56//147
f 61//148 55//148 64//148
f 58//149 82//149 55//149
f 58//150 55//150 61//150
f 65//151 77//151 82//151
f 65//152 82//152 58//152
f 62//153 57//153 59//153
f 68//154 40//154 81//154
f 68//155 77//155 40//155
f 78//156 77//156 68//156
f 79//157 77//157 78//157
f 77//158 65//158 40//158
f 60//159 65//159 58//159
f 38//160 40//160 65//160
f 64//161 38//161 65//161
f 66//162 71//162 73//162
f 74//163 68//163 81//163
f 80//164 74//164 81//164
f 69//165 68//165 67//165
f 75//166 74//166 47//166
f 75//167 73//167 74//167
f 79//168 72//168 73//168
f 79//169 73//169 75//169
f 79//170 68//170 72//170
f 78//171 68//171 79//171
f 55//172 82//172 83//172
f 55//173 83//173 87//173
f 61//174 60//174 59//174
f 61//175 64//175 60//175
f 40//176 41//176 39//176
f 73//177 69//177 74//177
f 68//178 70//178 72//178
f 87//179 83//179 86//179
f 82//180 86//180 84//180
f 82//181 84//181 83//181
f 85//182 83//182 84//182
f 86//183 85//183 84//183
f 37//184 45//184 44//184
f 37//185 39//185 45//185
f 54//186 55//186 56//186
f 42//187 41//187 43//187
f 42//188 88//188 41//188
f 88//189 39//189 41//189
f 89//190 39//190 88//190
f 44//191 89//191 88//191
f 89//192 45//192 39//192
f 44//193 88//193 90//193
f 44//194 90//194 42//194
f 45//195 89//195 44//195
f 91//196 85//196 86//196
f 91//197 83//197 85//197
f 86//198 83//198 91//198
f 88//199 93//199 94//199
f 88//200 42//200 93//200
f 90//201 88//201 94//201
f 42//202 90//202 93//202
f 90//203 94//203 92//203
f 90//204 92//204 93//204
f 95//205 93//205 94//205
f 95//206 94//206 92//206
f 95//207 92//207 93//207
f 76//208 87//208 96//208
f 87//209 97//209 96//209
f 85//210 76//210 96//210
f 97//211 85//211 96//211
f 87//212 86//212 97//212
f 91//213 85//213 97//213
f 91//214 76//214 85//214
f 97//215 76//215 91//215
f 86//216 76//216 97//216
f 102//217 99//217 98//217
f 99//218 100//218 101//218
f 98//219 99//219 101//219
f 100//220 98//220 101//220
f 102//221 100//221 98//221
f 102//222 100//222 99//222
f 104//223 107//223 103//223
f 107//224 105//224 103//224
f 103//225 105//225 106//225
f 104//226 103//226 106//226
f 105//227 104//227 106//227
f 107//228 104//228 105//228
